# xmcd
#
# Track frame offsets:
# 150
# 21165
# 43062
# 62977
# 74340
# 93027
# 106512
# 123887
# 136450
# 150495
# 169502
# 186012
# 207360
# 220387
#
# Disc length: 3125 seconds
#
#
# Revision: 0
# Processed by: cddbd v1.5.2PL0 Copyright (c) Steve Scherf et al.
# Submitted via: FreeRIP 2.941 
#
DISCID=bc0c330e
DTITLE=Ollie Austin - Long Dusty Road
DYEAR=1900
DGENRE=Country
TTITLE0=To Love Somebody
TTITLE1=Sometimes When We Touch
TTITLE2=The Love We Once Knew
TTITLE3=Still Got a Crush on You
TTITLE4=Who's Gonna Fill Their Shoes
TTITLE5=Daisy Chain
TTITLE6=A Lot of Good it's Gonna Do Me Now
TTITLE7=She's Just an Old Friend Turned Memory
TTITLE8=Tulsa Time
TTITLE9=The Highway Never Ends
TTITLE10=The Lord Knows I'm Drinkin'
TTITLE11=Old Dogs and Children and Watermelon Wine
TTITLE12=The Streets of Bakersfield
TTITLE13=The Cold Hard Facts of Life
EXTD=
EXTT0=
EXTT1=
EXTT2=
EXTT3=
EXTT4=
EXTT5=
EXTT6=
EXTT7=
EXTT8=
EXTT9=
EXTT10=
EXTT11=
EXTT12=
EXTT13=
PLAYORDER=
